<svg width="83" height="41" viewBox="0 0 83 41" fill="none" xmlns="http://www.w3.org/2000/svg">
<path d="M18.5219 33.4803C16.2444 36.2481 14.2864 40.7407 19.2546 40.7407H20.2652C28.1536 40.7407 44.1617 31.2018 49.0101 27.7494C47.1989 27.6653 46.1411 28.6035 44.7304 29.3969C43.3773 30.1581 42.1577 30.8082 40.7503 31.4721C37.9714 32.7829 35.1632 34.0907 32.1055 35.0983C24.3912 37.6404 17.8536 37.2078 23.7415 29.4617C24.1639 28.906 24.8116 28.2646 25.0786 27.7533C24.1426 27.7103 23.7731 28.233 23.224 28.7788C21.2035 30.7873 21.2885 30.1181 18.5219 33.4803Z" fill="#141414"/>
<path d="M30.2822 19.7252C29.9182 20.9449 28.4136 25.5105 28.4116 26.4365L32.3076 26.4339L34.5323 18.3934C35.0445 18.9375 37.5302 23.8911 38.3099 25.3145C38.8046 26.2177 39.3018 26.6594 40.6457 26.645C42.7998 26.6219 43.2627 24.5822 44.097 23.0732C44.8755 21.665 46.0283 19.7216 46.5383 18.2754C46.6282 18.396 46.6374 18.3854 46.7311 18.6109L47.1491 20.2065C47.3496 20.9628 47.5215 21.5897 47.7173 22.3159C47.9981 23.3574 48.532 25.6741 48.93 26.4365H52.8685C52.8827 25.6349 51.3664 20.8685 51.0332 19.7106C50.5223 17.9354 49.7649 14.2077 48.6626 13.3525C47.5997 12.528 46.1433 12.9205 45.4373 13.6934C44.59 14.6208 41.1242 21.397 40.6469 21.96C40.119 21.0983 39.6612 20.0576 39.1229 19.1514C38.4943 18.0929 36.4645 14.2675 35.897 13.6504C35.1343 12.8213 33.6786 12.6431 32.6388 13.3624C31.6505 14.0461 30.7695 18.0928 30.2822 19.7252Z" fill="#141414"/>
<path d="M67.5944 26.4447C68.4485 26.3697 70.2871 23.8121 70.6685 23.0189C68.1847 23.0189 65.7008 23.0179 63.2169 23.019C60.5519 23.0202 58.5928 23.016 57.6733 20.9689C56.6649 18.7238 58.6982 16.8988 60.5407 16.6454C62.4656 16.3806 65.9969 16.591 68.0918 16.5881C68.8639 15.5058 70.0193 14.2927 70.7035 13.1109C67.529 13.1109 60.9324 12.7641 58.271 13.5617C50.4458 15.9068 52.0583 26.1402 61.1933 26.4274C62.9223 26.4818 65.9528 26.5887 67.5944 26.4447Z" fill="#141414"/>
<path d="M10.4211 19.5545C13.049 22.5971 20.456 20.0303 23.3096 21.423L23.3271 22.6577C21.9746 23.4053 14.0296 23.0189 11.8294 23.0189C11.4491 23.5656 10.976 24.0951 10.5296 24.7015C10.2102 25.1356 9.4725 26.1561 9.25977 26.3984L22.278 26.413C28.9347 26.069 27.7497 20.5675 26.33 19.4777C23.8338 17.5614 16.1796 18.9173 14.3406 18.3463C13.4008 18.0545 13.364 16.821 14.5405 16.6255C15.3298 16.4943 17.0258 16.5887 17.907 16.5887C19.9575 16.5888 22.4043 16.7082 24.4062 16.5592L26.9974 13.13C23.8262 13.0008 20.4294 13.1116 17.2333 13.1109C14.1705 13.1102 10.86 13.1703 9.92271 15.7259C9.42766 17.0756 9.64919 18.6608 10.4211 19.5545Z" fill="#141414"/>
<path d="M50.2671 7.10473C47.637 8.60507 47.8443 8.84761 45.6796 7.7239C45.9201 10.0216 44.8454 10.28 43.4194 11.1845L43.3638 11.2198C42.6827 11.6515 40.3911 13.1042 39.9296 13.6381C43.3034 12.1501 45.4332 8.73526 47.658 11.0612C47.4303 8.58542 48.1091 8.67674 49.8872 7.73273C53.8634 5.62176 57.8473 3.65837 62.2831 2.31044C64.3678 1.67698 70.646 -0.0490964 71.5206 2.68944C72.3447 5.27001 68.4533 9.16154 67.5429 10.4374C68.1858 10.0901 70.0701 7.90255 70.6512 7.10953C76.1547 -0.400046 71.0192 -1.12881 63.7821 1.11971C59.493 2.45231 54.1288 4.90173 50.2671 7.10473Z" fill="#141414"/>
</svg>
