<svg width="148" height="72" viewBox="0 0 148 72" fill="none" xmlns="http://www.w3.org/2000/svg">
<path d="M26.2473 36.8125C26.2473 37.5672 26.0484 38.1578 25.6493 38.5829C25.2502 38.9999 24.714 39.2084 24.038 39.2084C23.3621 39.2084 22.8071 38.9958 22.3999 38.5707C21.9927 38.1456 21.7885 37.5591 21.7885 36.8125V31.449H20.0469V36.8125C20.0469 37.6116 20.2068 38.3017 20.528 38.8828C20.8491 39.4559 21.3074 39.8985 21.9054 40.2106C22.5034 40.5227 23.2143 40.6787 24.0367 40.6787C24.8591 40.6787 25.5525 40.5227 26.1425 40.2106C26.7405 39.8985 27.1947 39.4559 27.5065 38.8828C27.8276 38.3017 27.9875 37.6116 27.9875 36.8125V31.449H26.2459V36.8125H26.2473Z" fill="white"/>
<path d="M41.8943 32.6073V31.4477H34.3434V32.9059H39.5426L34.1875 39.4021V40.5617H41.9602V39.1035H36.5405L41.8943 32.6073Z" fill="white"/>
<path d="M53.6709 40.4958C54.1036 40.3653 54.5161 40.1837 54.9058 39.9483C55.305 39.7142 55.6557 39.4411 55.9581 39.1277L54.9314 38.0474C54.5927 38.3865 54.2084 38.6555 53.7743 38.8546C53.3416 39.0456 52.9035 39.1411 52.4614 39.1411C52.0193 39.1411 51.639 39.0591 51.2654 38.8936C50.9012 38.7281 50.576 38.5035 50.2912 38.217C50.0143 37.9304 49.798 37.5968 49.6407 37.2147C49.4849 36.8246 49.4069 36.4076 49.4069 35.965C49.4069 35.5224 49.4849 35.1108 49.6407 34.7287C49.7966 34.3467 50.013 34.0131 50.2912 33.7265C50.5774 33.4319 50.9026 33.2059 51.2654 33.0499C51.6377 32.8844 52.0368 32.8024 52.4614 32.8024C52.8861 32.8024 53.3457 32.9113 53.7864 33.1279C54.2286 33.3364 54.6089 33.623 54.93 33.9875L55.9433 32.7902C55.649 32.4862 55.3103 32.2306 54.93 32.0221C54.5484 31.8055 54.1452 31.6401 53.7206 31.5271C53.3054 31.406 52.8753 31.3455 52.4346 31.3455C51.7505 31.3455 51.1176 31.4625 50.5371 31.6966C49.9646 31.9306 49.458 32.2602 49.0159 32.6853C48.5737 33.1104 48.2311 33.6055 47.9892 34.1691C47.7473 34.7247 47.625 35.3328 47.625 35.9919C47.625 36.6511 47.7459 37.2551 47.9892 37.8282C48.2324 38.4013 48.5657 38.9003 48.9903 39.3254C49.423 39.7505 49.9256 40.0841 50.4981 40.3276C51.0786 40.5617 51.7022 40.6787 52.37 40.6787C52.8122 40.6787 53.2449 40.6182 53.6695 40.4958H53.6709Z" fill="white"/>
<path d="M68.0641 31.6952C67.4755 31.4612 66.8386 31.3441 66.1532 31.3441C65.4679 31.3441 64.8322 31.4612 64.2423 31.6952C63.6618 31.9293 63.1511 32.2589 62.709 32.684C62.2669 33.101 61.9202 33.5907 61.6689 34.1557C61.4256 34.7193 61.3047 35.3314 61.3047 35.9919C61.3047 36.6524 61.4256 37.2672 61.6689 37.8403C61.9202 38.4039 62.2669 38.899 62.709 39.3241C63.1511 39.7492 63.6618 40.0828 64.2423 40.3263C64.8309 40.5604 65.4679 40.6774 66.1532 40.6774C66.8386 40.6774 67.4742 40.5604 68.0641 40.3263C68.6527 40.0828 69.1647 39.7492 69.5974 39.3241C70.0396 38.899 70.3809 38.3999 70.6241 37.8268C70.8754 37.2538 71.0004 36.6417 71.0004 35.9906C71.0004 35.3395 70.8741 34.7234 70.6241 34.1678C70.3809 33.6041 70.0396 33.1091 69.5974 32.684C69.1647 32.2589 68.6527 31.9293 68.0641 31.6952ZM68.9739 37.2551C68.818 37.6372 68.6017 37.9748 68.3235 38.2708C68.0467 38.5654 67.7215 38.7954 67.3492 38.9609C66.985 39.1263 66.5953 39.2084 66.1801 39.2084C65.7648 39.2084 65.3698 39.1263 64.9975 38.9609C64.6253 38.7954 64.296 38.5654 64.0098 38.2708C63.7236 37.9762 63.4992 37.6372 63.3339 37.2551C63.1699 36.865 63.0866 36.4439 63.0866 35.9919C63.0866 35.5399 63.1645 35.1242 63.3204 34.7422C63.4857 34.3601 63.7101 34.0265 63.9964 33.74C64.2826 33.4454 64.6118 33.2194 64.9841 33.0633C65.3563 32.8979 65.7554 32.8158 66.1801 32.8158C66.6047 32.8158 66.9864 32.8979 67.3492 33.0633C67.7215 33.2194 68.0467 33.4454 68.3235 33.74C68.6003 34.0265 68.818 34.3601 68.9739 34.7422C69.1392 35.1242 69.2212 35.5413 69.2212 35.9919C69.2212 36.4426 69.1392 36.8636 68.9739 37.2551Z" fill="white"/>
<path d="M81.536 38.8694C81.2673 39.0604 80.8856 39.1559 80.3924 39.1559C80.0713 39.1559 79.7259 39.1035 79.3523 38.9999C78.9881 38.8869 78.624 38.7308 78.2611 38.5318C77.897 38.3232 77.5597 38.0757 77.2479 37.7892L76.5195 39.2084C76.8488 39.4949 77.217 39.7465 77.6242 39.9631C78.0394 40.1797 78.4775 40.3532 78.9371 40.4837C79.4047 40.6048 79.8818 40.6667 80.3669 40.6667C81.0334 40.6667 81.6274 40.5577 82.1475 40.3411C82.6756 40.1245 83.0922 39.8165 83.3945 39.4169C83.6982 39.0174 83.8501 38.5358 83.8501 37.9721C83.8501 37.504 83.7628 37.1125 83.5907 36.8004C83.4174 36.4883 83.1836 36.2314 82.8893 36.0323C82.603 35.8332 82.2872 35.6718 81.9405 35.5507C81.5938 35.4202 81.2471 35.3032 80.9004 35.1996C80.5537 35.0947 80.2339 34.987 79.9382 34.874C79.652 34.761 79.4182 34.6184 79.2367 34.4449C79.0634 34.2714 78.9774 34.0454 78.9774 33.7683C78.9774 33.4642 79.0983 33.2342 79.3416 33.0781C79.5929 32.9221 79.9221 32.8441 80.3293 32.8441C80.5712 32.8441 80.8399 32.875 81.1356 32.9355C81.4299 32.988 81.7416 33.0781 82.0709 33.2086C82.4095 33.3391 82.7374 33.5032 83.0586 33.7037L83.7601 32.271C83.3274 31.9845 82.8194 31.7544 82.2389 31.5809C81.6664 31.4074 81.0778 31.3199 80.4717 31.3199C79.7877 31.3199 79.1897 31.4289 78.6777 31.6455C78.1751 31.854 77.7814 32.1526 77.4952 32.5441C77.2089 32.9261 77.0665 33.3822 77.0665 33.9108C77.0665 34.379 77.1538 34.7664 77.3258 35.0691C77.5072 35.3731 77.7411 35.6247 78.0273 35.8238C78.3216 36.0148 78.6428 36.1749 78.9895 36.3054C79.3362 36.4265 79.6829 36.5354 80.0296 36.6309C80.3844 36.717 80.7056 36.822 80.9918 36.943C81.278 37.056 81.5078 37.1986 81.6812 37.3722C81.8626 37.5457 81.954 37.7757 81.954 38.0623C81.954 38.4093 81.8156 38.6784 81.5374 38.8694H81.536Z" fill="white"/>
<path d="M95.3117 37.4233L92.2961 31.4477H90.3086V40.5617H91.8943V33.8826L94.7405 39.6241H95.8573L98.6914 33.8826V40.5617H100.289V31.4477H98.3017L95.3117 37.4233Z" fill="white"/>
<path d="M114.918 32.6853C114.485 32.2602 113.973 31.9306 113.384 31.6966C112.796 31.4625 112.159 31.3455 111.474 31.3455C110.788 31.3455 110.153 31.4625 109.563 31.6966C108.982 31.9306 108.471 32.2602 108.029 32.6853C107.587 33.1023 107.24 33.592 106.989 34.157C106.746 34.7207 106.625 35.3328 106.625 35.9933C106.625 36.6538 106.746 37.2686 106.989 37.8416C107.24 38.4053 107.587 38.9003 108.029 39.3254C108.471 39.7505 108.982 40.0841 109.563 40.3276C110.151 40.5617 110.788 40.6787 111.474 40.6787C112.159 40.6787 112.795 40.5617 113.384 40.3276C113.973 40.0841 114.485 39.7505 114.918 39.3254C115.36 38.9003 115.703 38.4013 115.944 37.8282C116.196 37.2551 116.321 36.643 116.321 35.9919C116.321 35.3408 116.196 34.7247 115.944 34.1691C115.701 33.6055 115.36 33.1104 114.918 32.6853ZM114.293 37.2551C114.137 37.6372 113.921 37.9748 113.642 38.2708C113.366 38.5654 113.04 38.7954 112.668 38.9609C112.304 39.1263 111.914 39.2084 111.499 39.2084C111.084 39.2084 110.689 39.1263 110.316 38.9609C109.944 38.7954 109.615 38.5654 109.329 38.2708C109.043 37.9762 108.818 37.6372 108.653 37.2551C108.488 36.865 108.406 36.4439 108.406 35.9919C108.406 35.5399 108.484 35.1242 108.639 34.7422C108.805 34.3601 109.029 34.0265 109.315 33.74C109.602 33.4454 109.931 33.2194 110.303 33.0633C110.675 32.8979 111.074 32.8158 111.499 32.8158C111.924 32.8158 112.305 32.8979 112.668 33.0633C113.04 33.2194 113.366 33.4454 113.642 33.74C113.919 34.0265 114.137 34.3601 114.293 34.7422C114.458 35.1242 114.54 35.5413 114.54 35.9919C114.54 36.4426 114.458 36.8636 114.293 37.2551Z" fill="white"/>
<path d="M128.91 36.7991C128.736 36.487 128.503 36.23 128.208 36.031C127.922 35.8319 127.606 35.6704 127.259 35.5494C126.913 35.4189 126.566 35.3018 126.219 35.1982C125.873 35.0933 125.553 34.9857 125.257 34.8727C124.971 34.7597 124.737 34.6171 124.556 34.4436C124.382 34.27 124.296 34.044 124.296 33.7669C124.296 33.4629 124.417 33.2329 124.661 33.0768C124.912 32.9208 125.241 32.8427 125.648 32.8427C125.89 32.8427 126.159 32.8737 126.455 32.9342C126.749 32.9867 127.061 33.0768 127.39 33.2073C127.728 33.3378 128.058 33.5019 128.378 33.7023L129.079 32.2697C128.646 31.9831 128.138 31.7531 127.558 31.5796C126.985 31.406 126.397 31.3186 125.791 31.3186C125.107 31.3186 124.509 31.4275 123.997 31.6441C123.494 31.8526 123.1 32.1513 122.814 32.5427C122.528 32.9248 122.385 33.3808 122.385 33.9095C122.385 34.3777 122.473 34.7651 122.645 35.0678C122.826 35.3718 123.06 35.6233 123.346 35.8224C123.641 36.0135 123.962 36.1735 124.308 36.304C124.655 36.4251 125.002 36.5341 125.349 36.6296C125.703 36.7157 126.025 36.8206 126.311 36.9417C126.597 37.0547 126.827 37.1973 127 37.3708C127.182 37.5443 127.273 37.7744 127.273 38.0609C127.273 38.408 127.135 38.677 126.856 38.8681C126.588 39.0591 126.206 39.1546 125.713 39.1546C125.392 39.1546 125.046 39.1021 124.673 38.9986C124.308 38.8856 123.944 38.7295 123.581 38.5304C123.217 38.3219 122.88 38.0744 122.568 37.7878L121.84 39.2071C122.169 39.4936 122.537 39.7452 122.944 39.9617C123.36 40.1783 123.798 40.3519 124.257 40.4824C124.725 40.6034 125.202 40.6653 125.687 40.6653C126.355 40.6653 126.948 40.5563 127.468 40.3398C127.996 40.1232 128.413 39.8151 128.715 39.4156C129.019 39.016 129.17 38.5344 129.17 37.9708C129.17 37.5026 129.083 37.1112 128.911 36.7991H128.91Z" fill="white"/>
<path d="M53.9543 26.0358C54.7821 23.9265 56.4 21.2333 57.8151 19.4885C58.5918 18.5307 60.8938 16.2573 61.9016 15.4972C62.3733 15.138 63.2522 14.5192 63.8502 14.1345C66.4518 12.4892 69.4795 11.2126 72.4587 10.6099C74.3468 10.2508 75.5186 10.0799 77.7601 10.0893C80.5849 10.0893 82.2996 10.3584 84.783 11.031C86.542 11.5301 87.6547 11.974 89.3144 12.7892C91.8098 14.0511 93.6307 15.3263 95.6841 17.3281C96.5589 18.1648 97.5278 19.2343 98.0318 19.8934C98.0506 19.9203 98.0855 19.9109 98.1312 19.876C98.1675 19.8396 97.8866 19.4361 97.5063 18.9787C97.126 18.5213 96.4192 17.7236 95.9206 17.2124C93.0341 14.2623 89.4111 11.9498 85.5086 10.6288C84.0291 10.1149 82.4205 9.73283 80.8872 9.48127C79.5743 9.23779 75.6221 9.15976 74.2716 9.31043C73.6736 9.36424 72.7396 9.49876 72.1873 9.58889C67.5309 10.4014 63.1003 12.5121 59.5002 15.5887C58.5139 16.4348 56.9617 17.9953 56.1662 18.9975C55.3626 19.9863 54.2674 21.6032 53.629 22.7198C52.687 24.3085 51.6227 27.038 51.1645 28.7559L51.1094 29.0518L52.9491 28.998C53.2165 28.0806 53.5928 26.9277 53.9556 26.0385L53.9543 26.0358Z" fill="white"/>
<path d="M98.0292 52.1308C97.5252 52.7899 96.5577 53.8594 95.6815 54.6962C93.6282 56.6979 91.8073 57.9718 89.3118 59.235C87.6535 60.0502 86.5408 60.4941 84.7804 60.9932C82.297 61.6658 80.5823 61.9362 77.7576 61.9349C75.5161 61.9457 74.3456 61.7735 72.4562 61.4143C69.4769 60.8116 66.4479 59.535 63.8476 57.8898C63.2496 57.5037 62.3708 56.8849 61.8991 56.527C60.8912 55.767 58.5892 53.4935 57.8125 52.5357C56.3988 50.7909 54.7795 48.0977 53.9517 45.9884C53.5889 45.0992 53.2126 43.9463 52.9452 43.0289L51.1055 42.9751L51.1606 43.271C51.6188 44.9889 52.6831 47.7184 53.6251 49.3071C54.2635 50.4237 55.3587 52.0407 56.1623 53.0294C56.9592 54.0303 58.5113 55.5921 59.4963 56.4382C63.0964 59.5148 67.527 61.6268 72.1834 62.438C72.7357 62.5282 73.6696 62.6627 74.2676 62.7165C75.6182 62.8685 79.5704 62.7891 80.8833 62.5456C82.4166 62.2941 84.0265 61.9107 85.5047 61.3981C89.4072 60.0771 93.0301 57.7647 95.9167 54.8145C96.4152 54.3033 97.1221 53.5056 97.5024 53.0482C97.8827 52.5909 98.1636 52.1873 98.1273 52.151C98.0816 52.1146 98.0453 52.1066 98.0278 52.1335L98.0292 52.1308Z" fill="white"/>
</svg>
